<svg width="35" height="35" viewBox="0 0 35 35" fill="none" xmlns="http://www.w3.org/2000/svg">
<path d="M30.9832 34.4443H3.36328C1.67473 34.4422 0.306697 33.0733 0.305664 31.3848V3.7649C0.307731 2.07708 1.67546 0.709343 3.36328 0.707275H30.9813C32.6697 0.709337 34.0385 2.07647 34.0427 3.7649V31.3848C34.0406 33.0736 32.672 34.4422 30.9832 34.4443ZM7.18062 13.2041L6.45279 15.8866H8.85012L7.30067 22.2007C7.18681 22.7001 7.12396 23.2098 7.11309 23.722C7.0259 24.5462 7.32087 25.365 7.91366 25.9442C8.50646 26.5235 9.33183 26.7995 10.1538 26.6933C11.8979 26.6176 13.4646 25.6043 14.2488 24.0446L13.6354 26.4832H17.0325L18.9703 18.7153C19.458 16.727 20.4184 15.714 21.8197 15.714C22.3176 15.6768 22.8066 15.8603 23.1573 16.2156C23.508 16.571 23.6849 17.0625 23.6411 17.5598C23.6461 17.9293 23.5923 18.2971 23.4817 18.6497L22.4912 22.225C22.3484 22.7201 22.2764 23.2329 22.2774 23.7482C22.2237 24.5712 22.5388 25.3755 23.1372 25.9431C23.7356 26.5107 24.5554 26.7828 25.3744 26.6858C27.3065 26.6858 28.6534 25.3727 29.3831 22.7822L28.0568 22.2701C27.5391 23.7501 26.9876 24.4704 26.3686 24.4704C25.9165 24.4704 25.6783 24.1572 25.6783 23.5625C25.691 23.2506 25.7382 22.9411 25.819 22.6396L26.7944 19.1543C27.0156 18.4372 27.1294 17.6913 27.1321 16.9408C27.2436 15.9436 26.9297 14.9456 26.2674 14.1918C25.605 13.4381 24.6556 12.9984 23.6524 12.9809C21.6862 13.2494 19.9885 14.4927 19.1391 16.2861L19.8144 13.2529H14.5846L13.8511 15.8791H16.2784L14.7778 21.8593C14.2538 23.3284 12.9087 24.3472 11.3525 24.4535C11.2947 24.4544 11.2369 24.45 11.1799 24.4404C10.7241 24.3335 10.4596 24.159 10.4596 23.5925C10.4702 23.1243 10.5395 22.6592 10.6659 22.2082L12.947 13.2041H7.18062ZM11.5795 7.27272C10.849 7.27272 10.174 7.66243 9.80873 8.29505C9.44349 8.92767 9.44349 9.70709 9.80873 10.3397C10.174 10.9723 10.849 11.362 11.5795 11.362V11.3152C12.1264 11.3196 12.6529 11.1079 13.0445 10.7261C13.4285 10.347 13.6429 9.82882 13.6391 9.28925C13.6247 8.1647 12.7041 7.26333 11.5795 7.27272Z" fill="#2E3A59"/>
</svg>
