<svg width="35" height="35" viewBox="0 0 35 35" fill="none" xmlns="http://www.w3.org/2000/svg">
<path d="M17.7952 34.5346C13.1806 34.5346 12.6366 34.5102 10.8358 34.4314C9.43149 34.3852 8.04536 34.0997 6.73708 33.5873C4.47353 32.7064 2.68365 30.9158 1.80362 28.6519C1.31085 27.3389 1.04507 25.9516 1.01764 24.5495C0.912598 22.7524 0.912598 22.1634 0.912598 17.5845C0.912598 12.9568 0.936984 12.4165 1.01764 10.6251C1.04567 9.22483 1.31144 7.83949 1.80362 6.52827C2.6827 4.26137 4.47548 2.46927 6.74271 1.59105C8.05325 1.09621 9.43894 0.829732 10.8395 0.8032C12.631 0.701904 13.22 0.701904 17.7952 0.701904C22.4472 0.701904 22.9819 0.72629 24.7545 0.8032C26.1588 0.829962 27.5481 1.09641 28.8626 1.59105C31.1292 2.47026 32.9216 4.26202 33.8017 6.52827C34.3028 7.8586 34.57 9.26559 34.5914 10.687C34.6965 12.4841 34.6965 13.0712 34.6965 17.6482C34.6965 22.2253 34.6702 22.8256 34.5914 24.602C34.5635 26.0055 34.2971 27.394 33.8036 28.7082C32.9213 30.9737 31.1288 32.7649 28.8626 33.6454C27.55 34.1372 26.1635 34.403 24.762 34.4314C22.9706 34.5346 22.3835 34.5346 17.7952 34.5346ZM17.7314 3.67136C13.1431 3.67136 12.6666 3.69387 10.8752 3.77453C9.80593 3.7887 8.74701 3.98602 7.74441 4.35792C6.26391 4.92444 5.0924 6.09118 4.51984 7.56936C4.14507 8.58287 3.94772 9.65338 3.93645 10.7339C3.83703 12.5516 3.83703 13.0281 3.83703 17.5845C3.83703 22.0865 3.85392 22.6324 3.93645 24.4388C3.95325 25.5084 4.15048 26.5675 4.51984 27.5714C5.09324 29.0486 6.26455 30.2145 7.74441 30.781C8.74632 31.1554 9.80568 31.3528 10.8752 31.3644C12.691 31.4694 13.1693 31.4694 17.7314 31.4694C22.3328 31.4694 22.8093 31.4469 24.5857 31.3644C25.6557 31.3514 26.7154 31.154 27.7184 30.781C29.1899 30.2096 30.3538 29.0464 30.926 27.5752C31.3001 26.5608 31.4974 25.4898 31.5094 24.4088H31.5301C31.6107 22.6155 31.6107 22.1371 31.6107 17.5545C31.6107 12.9718 31.5901 12.4897 31.5094 10.6983C31.4926 9.62988 31.2954 8.57202 30.926 7.56936C30.3551 6.09602 29.191 4.9306 27.7184 4.35792C26.7156 3.98414 25.6558 3.78676 24.5857 3.77453C22.7718 3.67136 22.2972 3.67136 17.7314 3.67136ZM17.7952 26.249C14.2873 26.2513 11.1236 24.14 9.77944 20.8999C8.43529 17.6598 9.1755 13.9291 11.6548 11.4476C14.1342 8.96609 17.8643 8.22266 21.1056 9.564C24.3468 10.9053 26.4608 14.0672 26.4615 17.5751C26.4564 22.3605 22.5805 26.2397 17.7952 26.249ZM17.7952 11.9438C14.6872 11.9438 12.1676 14.4633 12.1676 17.5713C12.1676 20.6793 14.6872 23.1989 17.7952 23.1989C20.9032 23.1989 23.4227 20.6793 23.4227 17.5713C23.4155 14.4663 20.9002 11.951 17.7952 11.9438ZM26.7992 10.6064C25.6839 10.6022 24.7825 9.69579 24.7845 8.58045C24.7866 7.46511 25.6914 6.56204 26.8067 6.56204C27.922 6.56204 28.8268 7.4651 28.8289 8.58043C28.8294 9.11854 28.6156 9.6347 28.2347 10.0148C27.8539 10.395 27.3373 10.6078 26.7992 10.6064Z" fill="#2E3A59"/>
</svg>
