<svg width="34" height="35" viewBox="0 0 34 35" fill="none" xmlns="http://www.w3.org/2000/svg">
<path d="M17.3269 14.4914V20.9649H26.316C25.4793 25.0786 21.9772 27.4422 17.3269 27.4422C11.9105 27.3676 7.55881 22.9556 7.55881 17.5387C7.55881 12.1218 11.9105 7.70972 17.3269 7.63518C19.5784 7.63248 21.7604 8.41379 23.4985 9.84492L28.3756 4.96773C22.7811 0.0494083 14.6107 -0.583187 8.32583 3.41537C2.04093 7.41393 -0.848029 15.0827 1.23645 22.2341C3.32093 29.3856 9.87789 34.3011 17.3269 34.2965C25.7063 34.2965 33.326 28.2019 33.326 17.5377C33.3131 16.511 33.1872 15.4888 32.9508 14.4895L17.3269 14.4914Z" fill="#2E3A59"/>
</svg>
